<svg xmlns="http://www.w3.org/2000/svg" xmlns:xlink="http://www.w3.org/1999/xlink" width="500" zoomAndPan="magnify" viewBox="0 0 375 149.999998" height="200" preserveAspectRatio="xMidYMid meet" version="1.0"><defs><g/><clipPath id="d79b71e3aa"><rect x="0" width="362" y="0" height="122"/></clipPath><clipPath id="4f73bf1a05"><path d="M 10.996094 115.945312 L 186.507812 115.945312 L 186.507812 128.109375 L 10.996094 128.109375 Z M 10.996094 115.945312 " clip-rule="nonzero"/></clipPath><clipPath id="5d1ff32bd1"><path d="M 0.996094 0.945312 L 176.507812 0.945312 L 176.507812 13.109375 L 0.996094 13.109375 Z M 0.996094 0.945312 " clip-rule="nonzero"/></clipPath><clipPath id="0815af2d53"><rect x="0" width="177" y="0" height="14"/></clipPath><clipPath id="a9fe29b194"><path d="M 193 109 L 375 109 L 375 132.480469 L 193 132.480469 Z M 193 109 " clip-rule="nonzero"/></clipPath><clipPath id="22e35a0ca8"><path d="M 0.199219 6 L 11 6 L 11 18 L 0.199219 18 Z M 0.199219 6 " clip-rule="nonzero"/></clipPath><clipPath id="1bf26b7e34"><rect x="0" width="182" y="0" height="24"/></clipPath><clipPath id="a115d2905f"><rect x="0" width="375" y="0" height="133"/></clipPath></defs><g transform="matrix(1, 0, 0, 1, 0, -0.000000000000007527)"><g clip-path="url(#a115d2905f)"><g transform="matrix(1, 0, 0, 1, 0, -0.000000000000007527)"><g clip-path="url(#d79b71e3aa)"><g fill="#ffffff" fill-opacity="1"><g transform="translate(-5.286437, 97.8322)"><g><path d="M 63.265625 0 L 51.046875 0 L 22.328125 -40.59375 L 33.265625 -40.59375 C 36.054688 -40.59375 38.535156 -40.785156 40.703125 -41.171875 C 42.796875 -41.484375 44.425781 -41.867188 45.59375 -42.328125 C 47.988281 -43.410156 49.882812 -45 51.28125 -47.09375 C 52.675781 -49.113281 53.375 -51.207031 53.375 -53.375 C 53.375 -55.550781 52.71875 -57.609375 51.40625 -59.546875 C 50.082031 -61.398438 48.179688 -62.953125 45.703125 -64.203125 C 43.222656 -65.359375 40.351562 -65.9375 37.09375 -65.9375 L 19.53125 -65.9375 L 19.765625 0 L 9.890625 0 L 9.890625 -75.703125 L 37.09375 -75.703125 C 40.738281 -75.703125 44.148438 -75.125 47.328125 -73.96875 C 50.503906 -72.800781 53.296875 -71.132812 55.703125 -68.96875 C 58.023438 -66.875 59.847656 -64.46875 61.171875 -61.75 C 62.410156 -59.039062 63.03125 -56.25 63.03125 -53.375 C 63.03125 -48.800781 61.632812 -44.691406 58.84375 -41.046875 C 56.519531 -37.953125 53.378906 -35.4375 49.421875 -33.5 C 46.398438 -32.40625 43.726562 -31.859375 41.40625 -31.859375 Z M 63.265625 0 "/></g></g></g><g fill="#ffffff" fill-opacity="1"><g transform="translate(55.068647, 97.8322)"><g><path d="M 9.890625 -75.703125 L 58.265625 -75.703125 L 58.265625 -65.9375 L 19.53125 -65.9375 L 19.53125 -42.796875 L 49.1875 -42.796875 L 49.1875 -33.03125 L 19.53125 -33.03125 L 19.53125 -9.65625 L 58.265625 -9.65625 L 58.265625 0 L 9.890625 0 Z M 9.890625 -75.703125 "/></g></g></g><g fill="#ffffff" fill-opacity="1"><g transform="translate(113.097901, 97.8322)"><g><path d="M 13.265625 -7.203125 C 11.941406 -7.203125 10.816406 -7.707031 9.890625 -8.71875 C 8.953125 -9.65625 8.484375 -10.78125 8.484375 -12.09375 C 8.484375 -13.414062 8.953125 -14.578125 9.890625 -15.578125 C 10.816406 -16.515625 11.941406 -16.984375 13.265625 -16.984375 C 14.578125 -16.984375 15.738281 -16.515625 16.75 -15.578125 C 17.675781 -14.578125 18.140625 -13.414062 18.140625 -12.09375 C 18.140625 -10.78125 17.675781 -9.65625 16.75 -8.71875 C 15.738281 -7.707031 14.578125 -7.203125 13.265625 -7.203125 Z M 13.265625 -36.515625 C 11.941406 -36.515625 10.816406 -37.019531 9.890625 -38.03125 C 8.953125 -38.957031 8.484375 -40.082031 8.484375 -41.40625 C 8.484375 -42.71875 8.953125 -43.84375 9.890625 -44.78125 C 10.816406 -45.707031 11.941406 -46.171875 13.265625 -46.171875 C 14.578125 -46.171875 15.738281 -45.707031 16.75 -44.78125 C 17.675781 -43.84375 18.140625 -42.71875 18.140625 -41.40625 C 18.140625 -40.082031 17.675781 -38.957031 16.75 -38.03125 C 15.738281 -37.019531 14.578125 -36.515625 13.265625 -36.515625 Z M 13.265625 -36.515625 "/></g></g></g><g fill="#ffffff" fill-opacity="1"><g transform="translate(129.611245, 97.8322)"><g><path d="M 15.703125 -75.703125 L 39.65625 -22.09375 L 63.609375 -75.703125 L 74.3125 -75.703125 L 39.65625 1.859375 L 5.109375 -75.703125 Z M 15.703125 -75.703125 "/></g></g></g><g fill="#ffffff" fill-opacity="1"><g transform="translate(199.153314, 97.8322)"><g><path d="M 11.28125 -75.703125 L 21.046875 -75.703125 L 21.046875 0 L 11.28125 0 Z M 11.28125 -75.703125 "/></g></g></g><g fill="#ffffff" fill-opacity="1"><g transform="translate(221.364932, 97.8322)"><g><path d="M 5.9375 -75.703125 L 67.21875 -75.703125 L 67.21875 -65.9375 L 41.515625 -65.9375 L 41.515625 0 L 31.625 0 L 31.625 -65.9375 L 5.9375 -65.9375 Z M 5.9375 -75.703125 "/></g></g></g><g fill="#ffffff" fill-opacity="1"><g transform="translate(284.394716, 97.8322)"><g><path d="M 57.5625 -14.65625 L 22.90625 -14.65625 L 16.171875 0 L 5.46875 0 L 40.9375 -76.515625 L 74.546875 0 L 63.96875 0 Z M 53.375 -24.3125 L 40.59375 -53.03125 L 27.328125 -24.3125 Z M 53.375 -24.3125 "/></g></g></g></g></g><g clip-path="url(#4f73bf1a05)"><g transform="matrix(1, 0, 0, 1, 10, 115)"><g clip-path="url(#0815af2d53)"><g clip-path="url(#5d1ff32bd1)"><path fill="#ffffff" d="M 0.996094 0.945312 L 176.5 0.945312 L 176.5 13.109375 L 0.996094 13.109375 Z M 0.996094 0.945312 " fill-opacity="1" fill-rule="nonzero"/></g></g></g></g><g clip-path="url(#a9fe29b194)"><g transform="matrix(1, 0, 0, 1, 193, 109)"><g clip-path="url(#1bf26b7e34)"><g clip-path="url(#22e35a0ca8)"><g fill="#ffffff" fill-opacity="1"><g transform="translate(0.257655, 17.222923)"><g><path d="M 3.96875 0 L 3.96875 -3.640625 L 0.140625 -10.390625 L 2.8125 -10.390625 L 4.109375 -7.984375 L 5.15625 -6.09375 L 6.171875 -7.984375 L 7.453125 -10.390625 L 10.140625 -10.390625 L 6.328125 -3.671875 L 6.328125 0 Z M 3.96875 0 "/></g></g></g></g><g fill="#ffffff" fill-opacity="1"><g transform="translate(14.137058, 17.222923)"><g><path d="M 1.25 0 L 1.25 -10.390625 L 8.078125 -10.390625 L 8.078125 -8.40625 L 3.59375 -8.40625 L 3.59375 -6.25 L 7.671875 -6.25 L 7.671875 -4.28125 L 3.59375 -4.28125 L 3.59375 -2 L 8.234375 -2 L 8.234375 0 Z M 1.25 0 "/></g></g></g><g fill="#ffffff" fill-opacity="1"><g transform="translate(26.739842, 17.222923)"><g><path d="M 6.078125 0.203125 C 5.023438 0.203125 4.085938 -0.0234375 3.265625 -0.484375 C 2.441406 -0.941406 1.796875 -1.578125 1.328125 -2.390625 C 0.867188 -3.203125 0.640625 -4.132812 0.640625 -5.1875 C 0.640625 -6.25 0.867188 -7.1875 1.328125 -8 C 1.785156 -8.8125 2.421875 -9.445312 3.234375 -9.90625 C 4.054688 -10.363281 4.992188 -10.59375 6.046875 -10.59375 C 6.878906 -10.59375 7.648438 -10.441406 8.359375 -10.140625 C 9.078125 -9.847656 9.6875 -9.429688 10.1875 -8.890625 C 10.6875 -8.359375 11.039062 -7.722656 11.25 -6.984375 L 8.71875 -6.984375 C 8.46875 -7.441406 8.113281 -7.796875 7.65625 -8.046875 C 7.195312 -8.304688 6.671875 -8.4375 6.078125 -8.4375 C 5.484375 -8.4375 4.953125 -8.296875 4.484375 -8.015625 C 4.015625 -7.734375 3.648438 -7.347656 3.390625 -6.859375 C 3.128906 -6.378906 3 -5.820312 3 -5.1875 C 3 -4.570312 3.125 -4.019531 3.375 -3.53125 C 3.632812 -3.050781 4 -2.664062 4.46875 -2.375 C 4.9375 -2.09375 5.484375 -1.953125 6.109375 -1.953125 C 6.878906 -1.953125 7.515625 -2.144531 8.015625 -2.53125 C 8.515625 -2.914062 8.84375 -3.425781 9 -4.0625 L 5.625 -4.0625 L 5.625 -5.890625 L 11.484375 -5.890625 C 11.546875 -5.003906 11.457031 -4.1875 11.21875 -3.4375 C 10.988281 -2.695312 10.632812 -2.050781 10.15625 -1.5 C 9.675781 -0.957031 9.09375 -0.535156 8.40625 -0.234375 C 7.71875 0.0546875 6.941406 0.203125 6.078125 0.203125 Z M 6.078125 0.203125 "/></g></g></g><g fill="#ffffff" fill-opacity="1"><g transform="translate(42.459936, 17.222923)"><g/></g></g><g fill="#ffffff" fill-opacity="1"><g transform="translate(49.555482, 17.222923)"><g><path d="M 6.015625 0.203125 C 4.960938 0.203125 4.03125 -0.0234375 3.21875 -0.484375 C 2.40625 -0.941406 1.769531 -1.578125 1.3125 -2.390625 C 0.863281 -3.203125 0.640625 -4.132812 0.640625 -5.1875 C 0.640625 -6.25 0.863281 -7.1875 1.3125 -8 C 1.769531 -8.8125 2.398438 -9.445312 3.203125 -9.90625 C 4.015625 -10.363281 4.945312 -10.59375 6 -10.59375 C 6.875 -10.59375 7.675781 -10.425781 8.40625 -10.09375 C 9.144531 -9.757812 9.765625 -9.285156 10.265625 -8.671875 C 10.765625 -8.054688 11.113281 -7.332031 11.3125 -6.5 L 8.875 -6.5 C 8.675781 -7.070312 8.320312 -7.523438 7.8125 -7.859375 C 7.3125 -8.191406 6.734375 -8.359375 6.078125 -8.359375 C 5.484375 -8.359375 4.957031 -8.222656 4.5 -7.953125 C 4.039062 -7.691406 3.679688 -7.320312 3.421875 -6.84375 C 3.171875 -6.363281 3.046875 -5.8125 3.046875 -5.1875 C 3.046875 -4.570312 3.171875 -4.023438 3.421875 -3.546875 C 3.679688 -3.066406 4.039062 -2.691406 4.5 -2.421875 C 4.957031 -2.160156 5.476562 -2.03125 6.0625 -2.03125 C 6.738281 -2.03125 7.332031 -2.207031 7.84375 -2.5625 C 8.363281 -2.914062 8.734375 -3.390625 8.953125 -3.984375 L 11.390625 -3.984375 C 11.210938 -3.140625 10.875 -2.398438 10.375 -1.765625 C 9.875 -1.140625 9.25 -0.65625 8.5 -0.3125 C 7.75 0.03125 6.921875 0.203125 6.015625 0.203125 Z M 6.015625 0.203125 "/></g></g></g><g fill="#ffffff" fill-opacity="1"><g transform="translate(65.141976, 17.222923)"><g><path d="M 7.671875 0 L 7.671875 -4.1875 L 3.609375 -4.1875 L 3.609375 0 L 1.25 0 L 1.25 -10.390625 L 3.609375 -10.390625 L 3.609375 -6.390625 L 7.671875 -6.390625 L 7.671875 -10.390625 L 10.03125 -10.390625 L 10.03125 0 Z M 7.671875 0 "/></g></g></g><g fill="#ffffff" fill-opacity="1"><g transform="translate(80.030798, 17.222923)"><g><path d="M 1.25 0 L 1.25 -10.390625 L 3.609375 -10.390625 L 3.609375 0 Z M 1.25 0 "/></g></g></g><g fill="#ffffff" fill-opacity="1"><g transform="translate(88.492017, 17.222923)"><g><path d="M 1.25 0 L 1.25 -10.390625 L 3.25 -10.390625 L 7.84375 -4.0625 L 7.84375 -10.390625 L 10.1875 -10.390625 L 10.1875 0 L 8.171875 0 L 3.59375 -6.375 L 3.59375 0 Z M 1.25 0 "/></g></g></g><g fill="#ffffff" fill-opacity="1"><g transform="translate(103.529275, 17.222923)"><g><path d="M 0.140625 0 L 4.265625 -10.390625 L 6.578125 -10.390625 L 10.703125 0 L 8.171875 0 L 7.484375 -1.796875 L 3.359375 -1.796875 L 2.65625 0 Z M 3.96875 -3.65625 L 6.890625 -3.65625 L 5.421875 -7.453125 Z M 3.96875 -3.65625 "/></g></g></g><g fill="#ffffff" fill-opacity="1"><g transform="translate(117.97275, 17.222923)"><g><path d="M 3.734375 0 L 3.734375 -8.171875 L 0.4375 -8.171875 L 0.4375 -10.390625 L 9.390625 -10.390625 L 9.390625 -8.171875 L 6.09375 -8.171875 L 6.09375 0 Z M 3.734375 0 "/></g></g></g><g fill="#ffffff" fill-opacity="1"><g transform="translate(131.421662, 17.222923)"><g><path d="M 6.171875 0.203125 C 5.097656 0.203125 4.140625 -0.0234375 3.296875 -0.484375 C 2.460938 -0.941406 1.8125 -1.578125 1.34375 -2.390625 C 0.875 -3.203125 0.640625 -4.132812 0.640625 -5.1875 C 0.640625 -6.25 0.875 -7.1875 1.34375 -8 C 1.8125 -8.8125 2.460938 -9.445312 3.296875 -9.90625 C 4.140625 -10.363281 5.097656 -10.59375 6.171875 -10.59375 C 7.265625 -10.59375 8.222656 -10.363281 9.046875 -9.90625 C 9.878906 -9.445312 10.53125 -8.8125 11 -8 C 11.476562 -7.1875 11.71875 -6.25 11.71875 -5.1875 C 11.71875 -4.132812 11.476562 -3.203125 11 -2.390625 C 10.53125 -1.578125 9.878906 -0.941406 9.046875 -0.484375 C 8.222656 -0.0234375 7.265625 0.203125 6.171875 0.203125 Z M 3.046875 -5.1875 C 3.046875 -4.570312 3.175781 -4.023438 3.4375 -3.546875 C 3.707031 -3.066406 4.078125 -2.691406 4.546875 -2.421875 C 5.015625 -2.160156 5.554688 -2.03125 6.171875 -2.03125 C 6.796875 -2.03125 7.34375 -2.160156 7.8125 -2.421875 C 8.28125 -2.691406 8.644531 -3.066406 8.90625 -3.546875 C 9.175781 -4.023438 9.3125 -4.570312 9.3125 -5.1875 C 9.3125 -5.8125 9.175781 -6.363281 8.90625 -6.84375 C 8.644531 -7.320312 8.28125 -7.691406 7.8125 -7.953125 C 7.34375 -8.222656 6.796875 -8.359375 6.171875 -8.359375 C 5.554688 -8.359375 5.015625 -8.222656 4.546875 -7.953125 C 4.078125 -7.691406 3.707031 -7.320312 3.4375 -6.84375 C 3.175781 -6.363281 3.046875 -5.8125 3.046875 -5.1875 Z M 3.046875 -5.1875 "/></g></g></g><g fill="#ffffff" fill-opacity="1"><g transform="translate(147.394101, 17.222923)"><g><path d="M 3.484375 0 L 0.140625 -10.390625 L 2.65625 -10.390625 L 3.65625 -7.234375 L 4.75 -3.8125 L 5.9375 -7.234375 L 7.046875 -10.390625 L 9.296875 -10.390625 L 10.40625 -7.234375 L 11.609375 -3.765625 L 12.71875 -7.234375 L 13.71875 -10.390625 L 16.203125 -10.390625 L 12.859375 0 L 10.53125 0 L 8.171875 -6.71875 L 5.8125 0 Z M 3.484375 0 "/></g></g></g><g fill="#ffffff" fill-opacity="1"><g transform="translate(167.359669, 17.222923)"><g><path d="M 1.25 0 L 1.25 -10.390625 L 3.25 -10.390625 L 7.84375 -4.0625 L 7.84375 -10.390625 L 10.1875 -10.390625 L 10.1875 0 L 8.171875 0 L 3.59375 -6.375 L 3.59375 0 Z M 1.25 0 "/></g></g></g></g></g></g></g></g></svg>